<svg width="187" height="99" viewBox="0 0 187 99" fill="none" xmlns="http://www.w3.org/2000/svg">
<path d="M126.14 88.1437C126.144 88.2715 126.197 88.3927 126.288 88.4831C126.378 88.5735 126.499 88.6264 126.627 88.631H129.712C129.84 88.6264 129.961 88.5735 130.051 88.4831C130.142 88.3927 130.194 88.2715 130.199 88.1437V74.4289H133.872C134.002 74.4289 134.126 74.3776 134.217 74.2862C134.308 74.1948 134.36 74.0709 134.36 73.9416V71.1417C134.36 71.0125 134.308 70.8885 134.217 70.7971C134.126 70.7058 134.002 70.6544 133.872 70.6544H122.47C122.341 70.6544 122.216 70.7056 122.124 70.7969C122.032 70.8882 121.98 71.0121 121.979 71.1417V73.9416C121.98 74.0712 122.032 74.1951 122.124 74.2864C122.216 74.3777 122.341 74.4289 122.47 74.4289H126.14V88.1437Z" fill="white"/>
<path d="M108.279 86.9106C108.872 87.5028 110.719 88.8897 114.059 88.8897C117.834 88.8897 120.116 86.2172 120.116 83.5709C120.116 80.0775 116.934 78.5145 114.929 77.7161C112.923 76.9178 112.133 76.1756 112.133 75.2236C112.133 74.5301 112.822 73.9154 113.748 73.9154C115.315 73.9154 117.189 75.3285 117.421 75.4559C117.654 75.5834 118.115 75.4035 118.295 75.1224L119.607 73.147C119.681 73.0133 119.707 72.8576 119.679 72.7069C119.651 72.5563 119.571 72.4203 119.453 72.3224C117.863 71.1219 115.938 70.4483 113.947 70.3958C109.992 70.3958 108.013 72.9671 108.013 75.5084C108.013 78.5895 110.787 80.3099 112.995 81.1833C114.741 81.8767 115.641 82.6826 115.641 83.7771C115.641 84.6766 114.891 85.3176 113.872 85.3176C112.174 85.3176 110.326 83.957 110.225 83.9045C110.085 83.818 109.918 83.7863 109.756 83.8153C109.594 83.8444 109.449 83.9322 109.348 84.0619L108.152 86.2097C107.946 86.5845 108.021 86.6707 108.279 86.9293" fill="white"/>
<path d="M100.996 88.1437C101 88.2718 101.053 88.3935 101.143 88.4841C101.234 88.5747 101.356 88.6272 101.484 88.631H104.576C104.704 88.6272 104.826 88.5747 104.916 88.4841C105.007 88.3935 105.06 88.2718 105.063 88.1437V71.1417C105.06 71.0137 105.007 70.8919 104.916 70.8013C104.826 70.7107 104.704 70.6582 104.576 70.6544H101.495C101.367 70.6582 101.245 70.7107 101.155 70.8013C101.064 70.8919 101.012 71.0137 101.008 71.1417L100.996 88.1437Z" fill="white"/>
<path d="M88.3387 78.3383V74.3277H92.1394C92.6557 74.3307 93.1502 74.5368 93.5157 74.9016C93.8812 75.2664 94.0883 75.7604 94.0922 76.2768C94.092 76.8046 93.8893 77.3122 93.526 77.695C93.1627 78.0778 92.6664 78.3068 92.1394 78.3346L88.3387 78.3383ZM84.3055 88.1475C84.3055 88.2767 84.3569 88.4007 84.4483 88.492C84.5396 88.5834 84.6636 88.6348 84.7928 88.6348H87.8514C87.9791 88.6301 88.1004 88.5773 88.1908 88.4869C88.2812 88.3965 88.334 88.2752 88.3387 88.1475V81.5956H90.1116L93.5262 88.3986C93.5684 88.4702 93.6288 88.5294 93.7012 88.5702C93.7736 88.611 93.8554 88.632 93.9385 88.631H97.3532C97.4431 88.6369 97.5329 88.6176 97.6124 88.5752C97.6919 88.5328 97.758 88.4691 97.8032 88.3911C97.8484 88.3132 97.871 88.2241 97.8683 88.1341C97.8656 88.044 97.8378 87.9565 97.788 87.8814L94.2721 81.3557C96.5211 80.4561 98.0728 78.5557 98.0728 76.1943C98.0629 74.717 97.4681 73.3038 96.4186 72.2641C95.369 71.2244 93.9503 70.6429 92.473 70.6469H84.7928C84.6636 70.6469 84.5396 70.6983 84.4483 70.7897C84.3569 70.881 84.3055 71.005 84.3055 71.1342V88.1475Z" fill="white"/>
<path d="M122.624 61.8236C123.212 62.4158 125.064 63.8027 128.4 63.8027C132.178 63.8027 134.465 61.1302 134.465 58.4839C134.465 54.9905 131.279 53.4275 129.277 52.6292C127.275 51.8308 126.473 51.0886 126.473 50.1403C126.473 49.4431 127.17 48.8284 128.093 48.8284C129.659 48.8284 131.537 50.2415 131.766 50.369C131.994 50.4964 132.459 50.3202 132.639 50.0354L133.947 48.06C134.028 47.928 134.058 47.7716 134.034 47.6191C134.009 47.4665 133.93 47.3278 133.812 47.2279C132.226 46.0296 130.305 45.3561 128.317 45.3013C124.363 45.3013 122.384 47.8726 122.384 50.4139C122.384 53.495 125.158 55.2154 127.369 56.0888C129.116 56.7822 130.012 57.6068 130.012 58.6826C130.012 59.5821 129.262 60.2231 128.239 60.2231C126.545 60.2231 124.697 58.8625 124.592 58.81C124.453 58.7232 124.287 58.6912 124.126 58.7203C123.966 58.7494 123.821 58.8376 123.722 58.9674L122.493 61.0964C122.287 61.4713 122.365 61.5612 122.624 61.8161" fill="white"/>
<path d="M108.414 63.0567C108.414 63.1859 108.466 63.3099 108.557 63.4013C108.648 63.4926 108.772 63.544 108.902 63.544H119.535C119.599 63.544 119.663 63.5314 119.722 63.5069C119.781 63.4824 119.835 63.4465 119.88 63.4013C119.925 63.356 119.961 63.3023 119.986 63.2432C120.01 63.1841 120.023 63.1207 120.023 63.0567V60.2568C120.023 60.1928 120.01 60.1294 119.986 60.0703C119.961 60.0112 119.925 59.9575 119.88 59.9122C119.835 59.867 119.781 59.8311 119.722 59.8066C119.663 59.7821 119.599 59.7695 119.535 59.7695H112.414V56.3024H118.268C118.398 56.3024 118.522 56.2511 118.614 56.1599C118.706 56.0686 118.758 55.9447 118.759 55.8151V53.0151C118.755 52.8868 118.701 52.765 118.61 52.6745C118.519 52.584 118.397 52.5316 118.268 52.5279H112.421V49.3419H119.543C119.672 49.3419 119.796 49.2905 119.887 49.1991C119.979 49.1078 120.03 48.9838 120.03 48.8546V46.0547C120.03 45.9254 119.979 45.8015 119.887 45.7101C119.796 45.6187 119.672 45.5674 119.543 45.5674H108.902C108.772 45.5674 108.648 45.6187 108.557 45.7101C108.466 45.8015 108.414 45.9254 108.414 46.0547V63.0567Z" fill="white"/>
<path d="M89.7743 63.0567C89.778 63.1847 89.8306 63.3065 89.9212 63.3971C90.0117 63.4877 90.1335 63.5402 90.2615 63.544H93.3313C93.3957 63.5445 93.4594 63.5322 93.519 63.508C93.5785 63.4837 93.6327 63.4479 93.6783 63.4026C93.724 63.3573 93.7602 63.3034 93.7849 63.244C93.8096 63.1847 93.8224 63.121 93.8224 63.0567V56.3099H101.165V63.0567C101.165 63.1859 101.217 63.3099 101.308 63.4013C101.399 63.4926 101.523 63.544 101.652 63.544H104.711C104.839 63.5402 104.961 63.4877 105.051 63.3971C105.142 63.3065 105.195 63.1847 105.198 63.0567V46.0547C105.194 45.9269 105.141 45.8056 105.05 45.7153C104.96 45.6249 104.839 45.572 104.711 45.5674H101.652C101.523 45.5674 101.399 45.6187 101.308 45.7101C101.217 45.8015 101.165 45.9254 101.165 46.0547V52.5279H93.8074V46.0547C93.8064 45.9251 93.7542 45.8011 93.6622 45.7099C93.5703 45.6186 93.4459 45.5674 93.3164 45.5674H90.2615C90.1335 45.5712 90.0117 45.6237 89.9212 45.7143C89.8306 45.8049 89.778 45.9266 89.7743 46.0547V63.0567Z" fill="white"/>
<path d="M71.629 54.582C71.627 55.7975 71.8657 57.0014 72.3314 58.1242C72.7971 59.247 73.4806 60.2665 74.3424 61.1237C75.2042 61.981 76.2272 62.6591 77.3525 63.1189C78.4777 63.5787 79.6829 63.8111 80.8984 63.8026C83.2261 63.8279 85.4694 62.932 87.1392 61.3101C87.2295 61.2187 87.2823 61.0968 87.2872 60.9685C87.292 60.8401 87.2486 60.7146 87.1654 60.6166L85.1639 58.4726C85.0738 58.3885 84.9565 58.3395 84.8333 58.3347C84.7101 58.3299 84.5893 58.3695 84.4929 58.4464C83.524 59.2451 82.3077 59.6823 81.0521 59.6833C78.1509 59.6833 75.9957 57.3182 75.9957 54.4658C75.9957 51.6133 78.1247 49.177 81.0258 49.177C82.303 49.1758 83.5364 49.6425 84.4929 50.4889C84.5791 50.5731 84.6948 50.6203 84.8153 50.6203C84.9358 50.6203 85.0515 50.5731 85.1376 50.4889L87.1392 48.4086C87.1892 48.3621 87.2286 48.3053 87.2548 48.2422C87.2809 48.179 87.2931 48.111 87.2906 48.0428C87.2881 47.9745 87.271 47.9076 87.2403 47.8465C87.2097 47.7854 87.1662 47.7317 87.113 47.6889C86.2874 46.8982 85.3128 46.2796 84.2459 45.869C83.179 45.4585 82.0411 45.2642 80.8984 45.2976C79.6801 45.2951 78.4733 45.5333 77.3473 45.9985C76.2214 46.4637 75.1984 47.1467 74.3371 48.0083C73.4758 48.8699 72.7932 49.8932 72.3284 51.0194C71.8637 52.1456 71.626 53.3524 71.629 54.5707" fill="white"/>
<path d="M65.3507 88.1475C65.3544 88.2756 65.407 88.3973 65.4976 88.4879C65.5881 88.5785 65.7099 88.631 65.8379 88.6348H68.8965C69.0257 88.6348 69.1497 88.5835 69.2411 88.4921C69.3324 88.4007 69.3838 88.2768 69.3838 88.1475V81.4007H76.7304V88.1475C76.7304 88.2768 76.7817 88.4007 76.8731 88.4921C76.9644 88.5835 77.0884 88.6348 77.2176 88.6348H80.2724C80.4005 88.631 80.5222 88.5785 80.6128 88.4879C80.7034 88.3973 80.7559 88.2756 80.7597 88.1475V71.1455C80.7559 71.0174 80.7034 70.8957 80.6128 70.8051C80.5222 70.7145 80.4005 70.662 80.2724 70.6582H77.2139C77.0846 70.6582 76.9607 70.7095 76.8693 70.8009C76.7779 70.8923 76.7266 71.0162 76.7266 71.1455V77.6187H69.38V71.1455C69.38 71.0162 69.3287 70.8923 69.2373 70.8009C69.1459 70.7095 69.022 70.6582 68.8928 70.6582H65.8342C65.7064 70.6629 65.5852 70.7157 65.4948 70.8061C65.4044 70.8965 65.3516 71.0177 65.3469 71.1455L65.3507 88.1475Z" fill="white"/>
<path d="M47.2691 79.6727C47.2671 80.8886 47.506 82.0928 47.9719 83.2158C48.4379 84.3389 49.1217 85.3585 49.9839 86.2158C50.8461 87.0731 51.8696 87.7511 52.9952 88.2107C54.1209 88.6703 55.3265 88.9023 56.5423 88.8934C58.87 88.9187 61.1133 88.0227 62.7831 86.4008C62.8734 86.3094 62.9262 86.1876 62.9311 86.0592C62.9359 85.9308 62.8925 85.8053 62.8094 85.7074L60.804 83.5859C60.715 83.5012 60.5982 83.4519 60.4754 83.4471C60.3526 83.4422 60.2323 83.4822 60.1369 83.5596C59.1676 84.3578 57.9515 84.7949 56.696 84.7965C53.7948 84.7965 51.6358 82.4314 51.6358 79.579C51.6358 76.7266 53.7686 74.2902 56.6697 74.2902C57.9469 74.2891 59.1803 74.7557 60.1369 75.6021C60.2219 75.687 60.3372 75.7347 60.4573 75.7347C60.5775 75.7347 60.6928 75.687 60.7778 75.6021L62.7831 73.5218C62.8331 73.4753 62.8725 73.4185 62.8987 73.3554C62.9248 73.2923 62.937 73.2243 62.9346 73.156C62.9321 73.0877 62.9149 73.0208 62.8843 72.9597C62.8536 72.8987 62.8102 72.8449 62.7569 72.8022C61.9313 72.0114 60.9567 71.3928 59.8898 70.9822C58.8229 70.5717 57.685 70.3774 56.5423 70.4108C55.3237 70.4078 54.1165 70.6456 52.9901 71.1106C51.8637 71.5756 50.8402 72.2585 49.9786 73.1202C49.1169 73.9819 48.4339 75.0053 47.969 76.1317C47.504 77.2581 47.2662 78.4653 47.2691 79.6839" fill="white"/>
<path d="M60.0057 53.2475V49.2407H63.8064C64.3225 49.2446 64.8163 49.4511 65.1816 49.8156C65.5469 50.1802 65.7543 50.6737 65.7592 51.1898C65.759 51.7175 65.5564 52.2251 65.1931 52.608C64.8297 52.9908 64.3334 53.2197 63.8064 53.2475H60.0057ZM55.9726 63.0567C55.9726 63.121 55.9853 63.1847 56.01 63.244C56.0347 63.3034 56.071 63.3573 56.1166 63.4026C56.1623 63.4479 56.2164 63.4837 56.276 63.508C56.3355 63.5322 56.3993 63.5445 56.4636 63.544H59.5184C59.6464 63.5402 59.7682 63.4877 59.8588 63.3971C59.9494 63.3065 60.0019 63.1847 60.0057 63.0567V56.5085H61.7786L65.1932 63.3153C65.2362 63.386 65.2968 63.4442 65.3691 63.4843C65.4414 63.5244 65.5229 63.5449 65.6056 63.544H69.0202C69.1104 63.5507 69.2007 63.5319 69.2808 63.4898C69.3609 63.4477 69.4276 63.384 69.4733 63.3059C69.519 63.2278 69.5418 63.1385 69.5393 63.048C69.5367 62.9576 69.5088 62.8697 69.4588 62.7943L65.9391 56.2686C68.1881 55.369 69.7399 53.4687 69.7399 51.1073C69.73 49.6306 69.1356 48.218 68.0869 47.1784C67.0382 46.1388 65.6204 45.5569 64.1437 45.5599H56.4636C56.334 45.5599 56.2097 45.6111 56.1177 45.7024C56.0257 45.7936 55.9736 45.9176 55.9726 46.0472V63.0567Z" fill="white"/>
<path d="M38.442 56.6622C38.4687 58.573 39.2496 60.3958 40.6145 61.7333C41.9794 63.0709 43.8177 63.8147 45.7286 63.8026C49.788 63.8026 53.0752 60.5641 53.0752 56.6622V46.0547C53.0705 45.9269 53.0177 45.8056 52.9273 45.7153C52.8369 45.6249 52.7157 45.572 52.5879 45.5674H49.4281C49.3641 45.5674 49.3008 45.58 49.2417 45.6045C49.1826 45.629 49.1288 45.6649 49.0836 45.7101C49.0383 45.7553 49.0024 45.8091 48.978 45.8682C48.9535 45.9273 48.9409 45.9907 48.9409 46.0547V56.456C48.9409 57.301 48.6052 58.1114 48.0077 58.7089C47.4102 59.3064 46.5998 59.642 45.7549 59.642C44.9099 59.642 44.0995 59.3064 43.502 58.7089C42.9045 58.1114 42.5689 57.301 42.5689 56.456V46.0547C42.5679 45.9251 42.5157 45.8011 42.4237 45.7099C42.3317 45.6186 42.2074 45.5674 42.0778 45.5674H38.9218C38.7934 45.5711 38.6712 45.6235 38.58 45.714C38.4888 45.8045 38.4355 45.9263 38.4308 46.0547L38.442 56.6622Z" fill="white"/>
<path d="M19.9931 63.0567C19.9969 63.1847 20.0495 63.3065 20.14 63.3971C20.2306 63.4877 20.3524 63.5402 20.4804 63.544H23.5352C23.6645 63.544 23.7884 63.4926 23.8798 63.4013C23.9712 63.3099 24.0225 63.1859 24.0225 63.0567V56.3099H31.3691V63.0567C31.3691 63.1859 31.4204 63.3099 31.5118 63.4013C31.6032 63.4926 31.7271 63.544 31.8563 63.544H34.9149C35.043 63.5402 35.1647 63.4877 35.2553 63.3971C35.3459 63.3065 35.3984 63.1847 35.4022 63.0567V46.0547C35.3975 45.9269 35.3447 45.8056 35.2543 45.7153C35.1639 45.6249 35.0427 45.572 34.9149 45.5674H31.8601C31.7309 45.5674 31.6069 45.6187 31.5155 45.7101C31.4242 45.8015 31.3728 45.9254 31.3728 46.0547V52.5279H24.0225V46.0547C24.0225 45.9254 23.9712 45.8015 23.8798 45.7101C23.7884 45.6187 23.6645 45.5674 23.5352 45.5674H20.4804C20.3524 45.5712 20.2306 45.6237 20.14 45.7143C20.0495 45.8049 19.9969 45.9266 19.9931 46.0547V63.0567Z" fill="white"/>
<path d="M1.65674 54.5819C1.65473 55.7975 1.89348 57.0014 2.3592 58.1242C2.82492 59.247 3.5084 60.2664 4.37019 61.1237C5.23198 61.981 6.25501 62.659 7.38024 63.1189C8.50547 63.5786 9.71063 63.811 10.9262 63.8026C13.255 63.8281 15.4995 62.9322 17.1707 61.31C17.2597 61.2178 17.3113 61.0958 17.3155 60.9677C17.3196 60.8395 17.2761 60.7144 17.1932 60.6166L15.1917 58.4726C15.1026 58.388 14.9858 58.3387 14.863 58.3338C14.7402 58.329 14.6199 58.369 14.5245 58.4464C13.5538 59.2445 12.3365 59.6816 11.0798 59.6833C8.17869 59.6833 6.02345 57.3182 6.02345 54.4657C6.02345 51.6133 8.15245 49.177 11.0573 49.177C12.3342 49.1779 13.5669 49.6443 14.5245 50.4889C14.6095 50.5738 14.7248 50.6215 14.8449 50.6215C14.9651 50.6215 15.0804 50.5738 15.1654 50.4889L17.1707 48.4086C17.2196 48.3614 17.2581 48.3045 17.2835 48.2415C17.3089 48.1785 17.3208 48.1108 17.3183 48.0429C17.3158 47.975 17.2991 47.9084 17.2691 47.8474C17.2392 47.7864 17.1967 47.7324 17.1445 47.6889C16.3185 46.8977 15.3433 46.2788 14.2757 45.8683C13.2081 45.4577 12.0695 45.2637 10.9262 45.2975C9.70692 45.2951 8.49922 45.5336 7.3725 45.9995C6.24579 46.4654 5.22229 47.1494 4.36085 48.0123C3.49942 48.8751 2.81705 49.8997 2.35298 51.0272C1.8889 52.1546 1.65229 53.3627 1.65674 54.5819Z" fill="white"/>
<path d="M34.4539 88.1438C34.4577 88.2718 34.5102 88.3936 34.6008 88.4842C34.6914 88.5747 34.8131 88.6273 34.9412 88.6311H37.1901C37.3175 88.6264 37.4383 88.5734 37.5281 88.4829C37.6179 88.3924 37.6699 88.2712 37.6736 88.1438V80.5873H40.2374C40.3012 80.5873 40.3644 80.5747 40.4233 80.5502C40.4822 80.5256 40.5357 80.4897 40.5807 80.4444C40.6256 80.3991 40.6611 80.3453 40.6852 80.2862C40.7093 80.2271 40.7214 80.1639 40.721 80.1V78.3833C40.7236 78.319 40.7129 78.2548 40.6895 78.1947C40.6662 78.1347 40.6308 78.0801 40.5854 78.0343C40.54 77.9886 40.4857 77.9527 40.4258 77.9289C40.3659 77.9051 40.3018 77.894 40.2374 77.8961H37.6736V75.6059C37.6736 74.1066 38.2921 73.2745 39.3903 73.2745C39.9254 73.3163 40.4412 73.493 40.8896 73.788C40.9381 73.8207 40.9927 73.8434 41.0501 73.8547C41.1075 73.866 41.1665 73.8657 41.2238 73.8538C41.2811 73.8419 41.3354 73.8187 41.3836 73.7855C41.4318 73.7523 41.4728 73.7099 41.5043 73.6606L42.3777 72.0188C42.4248 71.9226 42.4404 71.8139 42.4223 71.7082C42.4041 71.6026 42.3531 71.5053 42.2765 71.4304C41.3969 70.7889 40.3326 70.4508 39.2441 70.4671C36.5304 70.4671 34.4539 72.2587 34.4539 75.6396V77.9298H32.1037C32.0392 77.9277 31.9749 77.9389 31.9148 77.9627C31.8548 77.9864 31.8002 78.0222 31.7545 78.0679C31.7089 78.1136 31.6731 78.1681 31.6493 78.2282C31.6256 78.2882 31.6144 78.3525 31.6165 78.4171V80.1338C31.6165 80.263 31.6678 80.387 31.7592 80.4783C31.8506 80.5697 31.9745 80.621 32.1037 80.621H34.4539V88.1438ZM23.0929 83.4847C23.0745 83.1504 23.1244 82.8158 23.2396 82.5014C23.3548 82.1871 23.533 81.8995 23.7631 81.6563C23.9932 81.4131 24.2706 81.2194 24.5781 81.087C24.8857 80.9546 25.217 80.8863 25.5518 80.8863C25.8866 80.8863 26.2179 80.9546 26.5255 81.087C26.833 81.2194 27.1104 81.4131 27.3405 81.6563C27.5706 81.8995 27.7488 82.1871 27.864 82.5014C27.9792 82.8158 28.0291 83.1504 28.0106 83.4847C28.0371 83.8238 27.9932 84.1646 27.8817 84.4859C27.7701 84.8071 27.5933 85.1019 27.3624 85.3515C27.1315 85.6012 26.8515 85.8004 26.5399 85.9366C26.2283 86.0729 25.8919 86.1432 25.5518 86.1432C25.2117 86.1432 24.8753 86.0729 24.5637 85.9366C24.2521 85.8004 23.9721 85.6012 23.7412 85.3515C23.5103 85.1019 23.3335 84.8071 23.2219 84.4859C23.1104 84.1646 23.0665 83.8238 23.0929 83.4847ZM20.1731 83.4847C20.1937 84.5179 20.519 85.5219 21.108 86.3709C21.697 87.22 22.5236 87.8762 23.4841 88.2573C24.4446 88.6385 25.4963 88.7275 26.5072 88.5134C27.5181 88.2992 28.4433 87.7913 29.1667 87.0534C29.8901 86.3155 30.3796 85.3805 30.5737 84.3655C30.7678 83.3506 30.6579 82.3009 30.2579 81.3481C29.8578 80.3954 29.1853 79.5819 28.3248 79.0098C27.4643 78.4377 26.454 78.1324 25.4206 78.1322C24.0199 78.1616 22.6864 78.7382 21.7056 79.7386C20.7248 80.7391 20.1747 82.0837 20.1731 83.4847Z" fill="white"/>
<path d="M162.535 39.3229C175.59 40.4811 184.789 40.7584 184.882 40.7622C184.975 40.7645 185.066 40.738 185.144 40.6863C185.221 40.6346 185.28 40.5603 185.313 40.4736C185.334 40.4223 185.344 40.3676 185.343 40.3124C185.344 40.2467 185.33 40.1817 185.304 40.1216C185.277 40.0616 185.238 40.0078 185.19 39.9638C179.065 34.81 171.46 31.5303 162.573 30.1921C162.755 33.2334 162.742 36.2832 162.535 39.3229Z" fill="white"/>
<path d="M160.504 39.3228C159.563 57.4531 153.678 77.1014 142.958 97.728C142.912 97.8187 142.837 97.891 142.744 97.9334C142.652 97.9757 142.548 97.9855 142.449 97.9612C142.351 97.9368 142.263 97.8798 142.201 97.7993C142.139 97.7189 142.106 97.6198 142.107 97.5181C142.107 97.4919 142.107 97.4656 142.107 97.4394C142.163 97.1283 147.763 66.2915 150.728 38.3558C141.609 37.355 132.958 36.1368 125.012 34.72C124.913 34.7043 124.822 34.6559 124.754 34.5825C124.686 34.5091 124.645 34.4149 124.637 34.3152V34.2777C124.636 34.1857 124.664 34.0957 124.716 34.02C124.769 33.9442 124.843 33.8864 124.929 33.8542C125.053 33.8092 137.175 29.4012 151.575 29.5024C152.228 21.9197 152.561 15.4428 152.561 10.1465C152.595 7.20808 152.467 4.27002 152.179 1.34561V1.29314C152.178 1.20155 152.205 1.11192 152.257 1.03623C152.308 0.960544 152.382 0.902404 152.467 0.869587C152.563 0.834413 152.668 0.832278 152.765 0.863521C152.862 0.894764 152.946 0.957591 153.003 1.04201C153.071 1.14321 159.698 11.241 160.556 30.1921C160.72 33.2339 160.707 36.2825 160.519 39.3228" fill="white"/>
<path d="M164.151 20.0007C163.24 23.4978 164.057 26.7475 165.976 27.2423C167.895 27.737 170.193 25.3082 171.096 21.8073C172 18.3065 171.194 15.0605 169.275 14.5657C167.355 14.0709 165.062 16.4923 164.151 20.0007Z" fill="white"/>
</svg>
